<svg id="Pictograms" xmlns="http://www.w3.org/2000/svg" viewBox="0 0 240 240"><defs><style>.cls-1{fill:#008fd3;}.cls-2,.cls-3,.cls-4{fill:#f0ab00;}.cls-2{opacity:0.4;}.cls-3{opacity:0.7;}.cls-5{fill:#fff;}</style></defs><title>281009-pictogram-neg</title><polygon class="cls-1" points="40 93 40 60 152 60 152 82 68 82 40 93"/><rect class="cls-2" x="99" y="57" width="22" height="28" transform="translate(181 -39) rotate(90)"/><rect class="cls-3" x="71" y="57" width="22" height="28" transform="translate(153 -11) rotate(90)"/><polygon class="cls-4" points="40 93 40 60 68 60 68 82 40 93"/><path class="cls-5" d="M76,140.06a14,14,0,1,0,14,14A14,14,0,0,0,76,140.06Zm0,24a10,10,0,1,1,10-10A10,10,0,0,1,76,164.06Zm88.5-24a14,14,0,1,0,14,14A14,14,0,0,0,164.5,140.06Zm0,24a10,10,0,1,1,10-10A10,10,0,0,1,164.5,164.06ZM12,102v10.08H49.55l23,5.58v10.72A26,26,0,1,0,102.42,156h36.16a26,26,0,0,0,51.84,0H212V120.5h8V164h4V116.5H196V96h24V80H67.29l-54,21.51M192,116.5H180V96h12Zm-39.91-5.27L166.93,96H176v20.5H149.59ZM16,104.72,68.06,84H216v8H165.24l-15.66,16.08H16Zm131.26,7.35-8.37,17.6-72.41-17.6Zm-70.76,64a22,22,0,1,1,22-22A22,22,0,0,1,76.5,176.06ZM116,152v-8h8v8Zm-4-12v12h-9.59A26,26,0,0,0,76.5,128.06v-9.44l64.61,15.7,6.58-13.83h34.47a38,38,0,0,1,20,31.5H190.41a26,26,0,0,0-51.82,0H128V140Zm52.5,36.06a22,22,0,1,1,22-22A22,22,0,0,1,164.5,176.06ZM208,152h-1.81a41.91,41.91,0,0,0-16.65-31.5H208Z"/></svg>